# AST/ASF file generated using VICON BodyLanguage
# -----------------------------------------------
:version 1.10
:name VICON
:units
  mass 1.0
  length 0.45
  angle deg
:documentation
   .ast/.asf automatically generated from VICON data using
   VICON BodyBuilder and BodyLanguage model FoxedUp or BRILLIANT.MOD
:root
   order TX TY TZ RX RY RZ
   axis XYZ
   position 0 0 0  
   orientation 0 0 0 
:bonedata
  begin
     id 1 
     name lhipjoint
     direction 0.521689 -0.742065 0.420928 
     length 2.47002 
     axis 0 0 0  XYZ
  end
  begin
     id 2 
     name lfemur
     direction 0.34202 -0.939693 0  
     length 7.24654  
     axis 0 0 20  XYZ
    dof rx ry rz
    limits (-160.0 20.0)
           (-70.0 70.0)
           (-60.0 70.0)
  end
  begin
     id 3 
     name ltibia
     direction 0.34202 -0.939693 0   
     length 8.04849   
     axis 0 0 20   XYZ
    dof rx
    limits (-10.0 170.0)
  end
  begin
     id 4 
     name lfoot
     direction 0.0745411 -0.2048 0.975961   
     length 1.72367   
     axis -90 7.62852e-016 20   XYZ
    dof rx rz
    limits (-45.0 90.0)
           (-70.0 20.0)
  end
  begin
     id 5 
     name ltoes
     direction 1.53556e-011 -4.21901e-011 1   
     length 0.87311   
     axis -90 7.62852e-016 20   XYZ
    dof rx
    limits (-90.0 20.0)
  end
  begin
     id 6 
     name rhipjoint
     direction -0.52849 -0.738415 0.418857   
     length 2.48223  
     axis 0 0 0  XYZ 
  end
  begin
     id 7 
     name rfemur
     direction -0.34202 -0.939693 0   
     length 7.15571   
     axis 0 0 -20   XYZ
    dof rx ry rz
    limits (-160.0 20.0)
           (-70.0 70.0)
           (-70.0 60.0)
  end
  begin
     id 8 
     name rtibia
     direction -0.34202 -0.939693 0   
     length 7.81659   
     axis 0 0 -20   XYZ
    dof rx
    limits (-10.0 170.0)
 end
 begin
     id 9 
     name rfoot
     direction -0.0917348 -0.252039 0.963359   
     length 1.84382  
     axis -90 -7.62852e-016 -20   XYZ
    dof rx rz
    limits (-45.0 90.0)
           (-20.0 70.0)
  end
  begin
     id 10 
     name rtoes
     direction -1.53551e-011 -4.21879e-011 1   
     length 0.927771   
     axis -90 -7.62852e-016 -20   XYZ
    dof rx
    limits (-90.0 20.0)
  end
  begin
     id 11 
     name lowerback
     direction 0.00583058 0.999822 0.0179296   
     length 2.1429   
     axis 0 0 0   XYZ
    dof rx ry rz
    limits (-20.0 45.0)
           (-30.0 30.0)
           (-30.0 30.0)
  end
  begin
     id 12 
     name upperback
     direction -0.0137999 0.999752 -0.0175071   
     length 2.14252   
     axis 0 0 0   XYZ
    dof rx ry rz
    limits (-20.0 45.0)
           (-30.0 30.0)
           (-30.0 30.0)
  end
  begin
     id 13 
     name thorax
     direction -0.0158036 0.99955 -0.0254909   
     length 2.1383   
     axis 0 0 0   XYZ
    dof rx ry rz
    limits (-20.0 45.0)
           (-30.0 30.0)
           (-30.0 30.0)
  end
  begin
     id 14 
     name lowerneck
     direction -0.0101179 0.999403 -0.0330262   
     length 1.65808   
     axis 0 0 0   XYZ
    dof rx ry rz
    limits (-20.0 45.0)
           (-30.0 30.0)
           (-30.0 30.0)
  end
  begin
     id 15 
     name upperneck
     direction 0.0497734 0.995978 -0.074501   
     length 1.5897   
     axis 0 0 0   XYZ
    dof rx ry rz
    limits (-20.0 45.0)
           (-30.0 30.0)
           (-30.0 30.0)
  end
  begin
     id 16
     name head
     direction 0.0189524 0.999519 -0.0245438  
     length 1.74024  
     axis 0 0 0   XYZ
    dof rx ry rz
    limits (-20.0 45.0)
           (-30.0 30.0)
           (-30.0 30.0)
  end
  begin
     id 17 
     name lclavicle
     direction 0.945604 0.324422 0.0241537  
     length 3.59089  
     axis 0 0 0   XYZ
    dof ry rz
    limits (-20.0 10.0)
           (0.0 20.0)
  end
  begin
     id 18 
     name lhumerus
     direction 1 -4.48964e-011 -2.63524e-027   
     length 5.2391   
     axis 180 -30 -90   XYZ
    dof rx ry rz
    limits (-60.0 90.0)
           (-90.0 90.0)
           (-90.0 90.0)
  end
  begin
     id 19
     name lradius
     direction 1 -4.48969e-011 3.86978e-028   
     length 3.31467   
     axis 180 -30 -90   XYZ
    dof rx
    limits (-10.0 170.0)
  end
  begin
     id 20
     name lwrist
     direction 1 -4.48963e-011 7.20928e-028   
     length 1.65734   
     axis -5.52449e-016 90 90   XYZ
    dof ry
    limits (-180.0 0.0)
 end
  begin
     id 21 
     name lhand
     direction 1 -4.48964e-011 1.44186e-027   
     length 0.9659   
     axis -9.20027e-016 90 90   XYZ
    dof rx rz
    limits (-90.0 90.0)
           (-45.0 45.0)
  end
  begin
     id 22 
     name lfingers
     direction 1 -4.48965e-011 2.88371e-027   
     length 0.778733   
     axis -1.84005e-015 90 90   XYZ
    dof rx
    limits (0.0 90.0)
  end
  begin
     id 23
     name lthumb
     direction 0.707107 -6.34931e-011 0.707107   
     length 1.11811   
     axis -90 45 2.85299e-015   XYZ
    dof rx rz
    limits (-45.0 45.0)
           (-45.0 45.0)
  end
  begin
     id 24 
     name rclavicle
     direction -0.923762 0.370785 0.0958234   
     length 3.54196  
     axis 0 0 0   XYZ 
    dof ry rz
    limits (-10.0 20.0)
           (-20.0 0.0)
  end
  begin
     id 25 
     name rhumerus
     direction -1 -4.48966e-011 1.18702e-017  
     length 5.30252   
     axis 180 30 90   XYZ
    dof rx ry rz
    limits (-90.0 60.0)
           (-90.0 90.0)
           (-90.0 90.0)
  end
  begin
     id 26 
     name rradius
     direction -1 -4.48966e-011 4.46736e-027   
     length 3.67875   
     axis 180 30 90   XYZ
    dof rx
    limits (-10.0 170.0)
  end
  begin
     id 27 
     name rwrist
     direction -1 -4.48966e-011 7.20928e-028   
     length 1.83937   
     axis -5.52449e-016 -90 -90   XYZ
    dof ry
    limits (-180.0 0.0)
  end
  begin
     id 28
     name rhand
     direction -1 -4.48973e-011 1.44186e-027   
     length 0.594811   
     axis -9.20027e-016 -90 -90   XYZ
    dof rx rz
    limits (-90.0 90.0)
           (-45.0 45.0)
  end
  begin
     id 29
     name rfingers
     direction -1 -4.48963e-011 2.88371e-027   
     length 0.479552   
     axis -1.84005e-015 -90 -90   XYZ
    dof rx
    limits (0.0 90.0)
  end
  begin
     id 30
     name rthumb
     direction -0.707107 -6.34932e-011 0.707107   
     length 0.688544   
     axis -90 -45 -2.85299e-015   XYZ
    dof rx rz
    limits (-45.0 45.0)
           (-45.0 45.0)
  end
:hierarchy
  begin
    root lhipjoint rhipjoint lowerback
    lhipjoint lfemur
    lfemur ltibia
    ltibia lfoot
    lfoot ltoes
    rhipjoint rfemur
    rfemur rtibia
    rtibia rfoot
    rfoot rtoes
    lowerback upperback
    upperback thorax
    thorax lowerneck lclavicle rclavicle
    lowerneck upperneck
    upperneck head
    lclavicle lhumerus
    lhumerus lradius
    lradius lwrist
    lwrist lhand lthumb
    lhand lfingers
    rclavicle rhumerus
    rhumerus rradius
    rradius rwrist
    rwrist rhand rthumb
    rhand rfingers
  end

#!OML:ASF E:\acrobat2\Project_11_07_03\Capture day 1\Session 1\Acrobat.ASF
:FULLY-SPECIFIED
:DEGREES
1
root 10.6471 20.9859 10.6883 3.75279 2.89033 -1.93818
lowerback -8.24813 0.442745 0.340371
upperback 1.67631 0.655202 -1.60106
thorax 6.41156 0.367804 -1.77793
lowerneck 1.00063 -4.11557 -2.59191
upperneck 8.76484 -6.34637 11.0997
head 2.86261 -2.91051 3.6233
rclavicle -8.15017e-015 -1.66979e-014
rhumerus -35.0243 -0.590599 -89.9079
rradius 27.7966
rwrist 5.659
rhand -1.20579 -46.6768
rfingers 7.12502
rthumb 24.4349 -75.1385
lclavicle -8.15017e-015 -1.66979e-014
lhumerus -26.5523 -12.021 89.2449
lradius 20.0791
lwrist 1.14302
lhand -6.7964 -11.6133
lfingers 7.12502
lthumb 19.0666 17.4722
rfemur -3.85418 6.03662 20.3328
rtibia 13.6624
rfoot -27.0173 -14.4701
rtoes 8.32478
lfemur -15.4345 -5.34268 -13.3875
ltibia 31.6342
lfoot -22.147 -10.4462
ltoes -6.64005
2
root 10.6476 20.9864 10.6857 3.7571 2.93535 -1.97248
lowerback -8.23651 0.44148 0.424787
upperback 1.67372 0.645195 -1.61229
thorax 6.40301 0.366265 -1.8387
lowerneck 0.969631 -4.11911 -2.64925
upperneck 8.83523 -6.36413 11.1804
head 2.8939 -2.91535 3.65574
rclavicle -7.45443e-016 7.95139e-016
rhumerus -35.0276 -0.558558 -89.9618
rradius 27.7868
rwrist 5.67963
rhand -1.22636 -46.7329
rfingers 7.12502
rthumb 24.4152 -75.1973
lclavicle -7.45443e-016 7.95139e-016
lhumerus -26.5597 -12.0411 89.2337
lradius 20.0754
lwrist 1.1436
lhand -6.85971 -11.5788
lfingers 7.12502
lthumb 19.0057 17.5127
rfemur -3.70505 5.89985 20.3676
rtibia 13.3756
rfoot -26.8637 -14.4706
rtoes 8.0987
lfemur -15.5204 -5.54059 -13.3224
ltibia 31.7297
lfoot -21.4018 -11.2464
ltoes 2.68315
3
root 10.646 20.9882 10.6845 3.75274 2.97696 -1.99677
lowerback -8.22843 0.434584 0.441686
upperback 1.68106 0.633858 -1.6059
thorax 6.40586 0.361258 -1.84312
lowerneck 0.886692 -4.13573 -2.72645
upperneck 8.95401 -6.40649 11.285
head 2.95135 -2.92895 3.69648
rclavicle 7.70291e-015 1.19271e-014
rhumerus -35.0496 -0.522136 -90.0056
rradius 27.8407
rwrist 5.60347
rhand -1.34467 -46.7073
rfingers 7.12502
rthumb 24.3018 -75.1868
lclavicle 7.70291e-015 1.19271e-014
lhumerus -26.575 -11.7844 89.159
lradius 20.1277
lwrist 0.891065
lhand -6.72885 -11.5285
lfingers 7.12502
lthumb 19.1316 17.5505
rfemur -3.62989 5.89463 20.4095
rtibia 13.2647
rfoot -26.8766 -14.4468
rtoes 8.19481
lfemur -15.5635 -5.76107 -13.2512
ltibia 31.7861
lfoot -22.1952 -10.604
ltoes -3.06321
4
root 10.6444 20.9869 10.686 3.74147 2.97741 -2.02098
lowerback -8.19976 0.440456 0.467018
upperback 1.63638 0.637777 -1.59661
thorax 6.34255 0.363338 -1.84707
lowerneck 0.930248 -4.13231 -2.77683
upperneck 9.03734 -6.41147 11.3142
head 2.97145 -2.93071 3.71426
rclavicle -9.88954e-015 -5.56597e-015
rhumerus -35.2075 -0.420976 -90.0655
rradius 27.9509
rwrist 5.39068
rhand -1.54386 -46.6443
rfingers 7.12502
rthumb 24.1108 -75.1493
lclavicle -9.88954e-015 -5.56597e-015
lhumerus -26.7549 -11.5277 89.1224
lradius 20.2775
lwrist 0.635405
lhand -6.5748 -11.4818
lfingers 7.12502
lthumb 19.2797 17.5825
rfemur -3.55339 5.93474 20.4453
rtibia 13.1369
rfoot -26.8375 -14.4795
rtoes 8.27094
lfemur -15.557 -5.59858 -13.2347
ltibia 31.8438
lfoot -22.2268 -10.4432
ltoes -6.47796
5
root 10.6432 20.9819 10.6884 3.72521 2.92603 -2.16154
lowerback -8.20016 0.50834 0.663348
upperback 1.6049 0.707073 -1.59082
thorax 6.3146 0.404268 -1.94221
lowerneck 1.05624 -4.1624 -2.81138
upperneck 8.99611 -6.45311 11.387
head 2.94434 -2.95558 3.74405
rclavicle 6.5102e-015 1.59028e-015
rhumerus -35.343 -0.557595 -90.0599
rradius 28.0427
rwrist 5.45393
rhand -1.49327 -46.6296
rfingers 7.12502
rthumb 24.1593 -75.1282
lclavicle 6.5102e-015 1.59028e-015
lhumerus -26.9211 -11.7946 89.1958
lradius 20.4332
lwrist 0.78972
lhand -6.5076 -11.4587
lfingers 7.12502
lthumb 19.3443 17.5992
rfemur -3.50191 5.99039 20.6045
rtibia 13.0627
rfoot -26.8485 -14.4552
rtoes 8.53535
lfemur -15.5388 -5.20476 -13.1259
ltibia 31.8812
lfoot -22.2843 -10.4852
ltoes -8.69877
6
root 10.6405 20.9806 10.6863 3.71496 2.89911 -2.26547
lowerback -8.16375 0.554507 0.774282
upperback 1.59267 0.75629 -1.58019
thorax 6.28429 0.432104 -1.98707
lowerneck 1.19064 -4.19155 -2.87407
upperneck 8.86357 -6.49016 11.5309
head 2.8913 -2.98041 3.80101
rclavicle -4.22417e-015 -7.15625e-015
rhumerus -35.3756 -0.650369 -90.0547
rradius 28.062
rwrist 5.5104
rhand -1.41559 -46.6899
rfingers 7.12502
rthumb 24.2338 -75.1786
lclavicle -4.22417e-015 -7.15625e-015
lhumerus -26.9166 -11.8314 89.1948
lradius 20.3963
lwrist 0.715336
lhand -6.4644 -11.5184
lfingers 7.12502
lthumb 19.3859 17.5353
rfemur -3.49352 6.16184 20.7417
rtibia 13.0667
rfoot -26.8708 -14.6066
rtoes 8.3614
lfemur -15.5489 -5.02719 -13.0176
ltibia 31.8867
lfoot -22.4532 -10.4001
ltoes -10.74
7
root 10.6382 20.9824 10.6838 3.70458 2.9338 -2.22828
lowerback -8.11556 0.542415 0.706297
upperback 1.58558 0.747216 -1.58168
thorax 6.24796 0.424878 -1.95169
lowerneck 1.27965 -4.1842 -2.93869
upperneck 8.76916 -6.47918 11.645
head 2.85273 -2.97979 3.84951
rclavicle 1.17283e-014 1.43125e-014
rhumerus -35.3911 -0.566595 -90.1025
rradius 28.0642
rwrist 5.40217
rhand -1.51725 -46.7254
rfingers 7.12502
rthumb 24.1363 -75.227
lclavicle 1.17283e-014 1.43125e-014
lhumerus -26.8571 -11.7516 89.2062
lradius 20.2384
lwrist 0.603417
lhand -6.52027 -11.6001
lfingers 7.12502
lthumb 19.3322 17.4589
rfemur -3.49378 6.2218 20.7185
rtibia 13.0859
rfoot -26.8735 -14.7069
rtoes 8.45815
lfemur -15.5465 -5.17602 -13.0272
ltibia 31.8697
lfoot -22.2551 -10.484
ltoes -9.05729
8
root 10.6372 20.9847 10.684 3.69626 2.96261 -2.11638
lowerback -8.15512 0.509517 0.566173
upperback 1.62742 0.719047 -1.59162
thorax 6.31184 0.406692 -1.88682
lowerneck 1.24318 -4.17022 -3.01501
upperneck 8.74361 -6.46274 11.7123
head 2.85411 -2.97179 3.8824
rclavicle -1.30204e-014 9.54166e-015
rhumerus -35.3104 -0.558543 -90.1215
rradius 28.0217
rwrist 5.48715
rhand -1.58892 -46.6981
rfingers 7.12502
rthumb 24.0676 -75.2089
lclavicle -1.30204e-014 9.54166e-015
lhumerus -26.7862 -11.7629 89.2472
lradius 20.1731
lwrist 0.640609
lhand -6.56725 -11.5825
lfingers 7.12502
lthumb 19.287 17.4811
rfemur -3.49742 6.16773 20.5968
rtibia 13.1205
rfoot -26.8772 -14.7138
rtoes 8.39915
lfemur -15.5241 -5.49285 -13.1141
ltibia 31.8372
lfoot -21.436 -11.3491
ltoes 2.34305
9
root 10.6351 20.9858 10.6838 3.69201 2.95209 -1.95466
lowerback -8.19066 0.465394 0.356132
upperback 1.66405 0.683197 -1.5989
thorax 6.36688 0.381844 -1.78085
lowerneck 1.20123 -4.15266 -3.11891
upperneck 8.75737 -6.44167 11.7377
head 2.86728 -2.9621 3.90694
rclavicle 1.38155e-014 8.74653e-015
rhumerus -35.2121 -0.534746 -90.1412
rradius 27.9118
rwrist 5.66588
rhand -1.66336 -46.6051
rfingers 7.12502
rthumb 23.9962 -75.1252
lclavicle 1.38155e-014 8.74653e-015
lhumerus -26.681 -11.3857 89.1796
lradius 20.0649
lwrist 0.41488
lhand -6.55645 -11.5864
lfingers 7.12502
lthumb 19.2974 17.4761
rfemur -3.49152 6.20514 20.4265
rtibia 13.1518
rfoot -26.9283 -14.7386
rtoes 8.01665
lfemur -15.5033 -5.55208 -13.2863
ltibia 31.8122
lfoot -22.1825 -10.5927
ltoes -4.7529
10
root 10.6335 20.9844 10.6826 3.68303 2.94619 -1.90132
lowerback -8.1636 0.448175 0.283438
upperback 1.64756 0.667097 -1.59301
thorax 6.33244 0.370826 -1.73593
lowerneck 1.25087 -4.15437 -3.14501
upperneck 8.75315 -6.4411 11.7122
head 2.8577 -2.9652 3.90466
rclavicle -1.28713e-014 1.19271e-014
rhumerus -35.2117 -0.505614 -90.1625
rradius 27.8265
rwrist 5.7808
rhand -1.69144 -46.4515
rfingers 7.12502
rthumb 23.9693 -74.9752
lclavicle -1.28713e-014 1.19271e-014
lhumerus -26.7281 -11.3203 89.2158
lradius 20.0547
lwrist 0.461144
lhand -6.60154 -11.5461
lfingers 7.12502
lthumb 19.254 17.5208
rfemur -3.48214 6.20789 20.3722
rtibia 13.1629
rfoot -26.9892 -14.6949
rtoes 8.03538
lfemur -15.4843 -5.2322 -13.3815
ltibia 31.8103
lfoot -21.8645 -10.6636
ltoes -6.17314
11
root 10.6331 20.9823 10.681 3.6805 2.92598 -1.97816
lowerback -8.12296 0.459716 0.364576
upperback 1.59983 0.671398 -1.56397
thorax 6.25953 0.374769 -1.75065
lowerneck 1.33501 -4.16872 -3.10414
upperneck 8.72602 -6.45148 11.633
head 2.83296 -2.97503 3.87551
rclavicle -1.56046e-014 3.97569e-015
rhumerus -35.2644 -0.47198 -90.1702
rradius 27.7888
rwrist 5.82276
rhand -1.63076 -46.2774
rfingers 7.12502
rthumb 24.0275 -74.7934
lclavicle -1.56046e-014 3.97569e-015
lhumerus -26.9437 -11.4195 89.301
lradius 20.2112
lwrist 0.550396
lhand -6.65581 -11.4596
lfingers 7.12502
lthumb 19.2018 17.6125
rfemur -3.50975 6.14517 20.4518
rtibia 13.2057
rfoot -26.9899 -14.566
rtoes 8.38347
lfemur -15.4746 -5.04426 -13.3163
ltibia 31.8138
lfoot -22.2337 -10.3391
ltoes -10.714
12
root 10.6317 20.9804 10.6811 3.67312 2.92604 -1.99463
lowerback -8.10045 0.441171 0.334795
upperback 1.56584 0.64668 -1.52306
thorax 6.209 0.36027 -1.69432
lowerneck 1.429 -4.16464 -3.16213
upperneck 8.68464 -6.43998 11.6178
head 2.80534 -2.97607 3.88326
rclavicle -1.04362e-015 1.59028e-015
rhumerus -35.3309 -0.281919 -90.2172
rradius 27.7957
rwrist 5.7451
rhand -1.65162 -46.2175
rfingers 7.12502
rthumb 24.0075 -74.7362
lclavicle -1.04362e-015 1.59028e-015
lhumerus -27.0604 -11.2141 89.3273
lradius 20.2131
lwrist 0.404358
lhand -6.77033 -11.6045
lfingers 7.12502
lthumb 19.0917 17.4785
rfemur -3.52269 6.12886 20.4786
rtibia 13.2614
rfoot -26.9281 -14.6168
rtoes 7.82525
lfemur -15.4568 -5.08964 -13.2917
ltibia 31.8139
lfoot -22.2684 -10.3426
ltoes -10.5099
13
root 10.6308 20.9807 10.6818 3.66735 2.96192 -1.87117
lowerback -8.11013 0.378816 0.126668
upperback 1.57418 0.582672 -1.48229
thorax 6.21842 0.320432 -1.54291
lowerneck 1.44076 -4.11273 -3.31012
upperneck 8.67221 -6.37293 11.6868
head 2.80058 -2.94632 3.93128
rclavicle -7.7526e-015 1.82882e-014
rhumerus -35.3231 0.0918639 -90.2906
rradius 27.7662
rwrist 5.60763
rhand -1.75181 -46.2474
rfingers 7.12502
rthumb 23.9114 -74.7787
lclavicle -7.7526e-015 1.82882e-014
lhumerus -27.0766 -11.1379 89.441
lradius 20.224
lwrist 0.448522
lhand -6.90415 -11.6311
lfingers 7.12502
lthumb 18.963 17.4645
rfemur -3.50688 6.05751 20.3538
rtibia 13.2602
rfoot -26.8086 -14.8345
rtoes 6.51318
lfemur -15.4441 -5.14938 -13.4283
ltibia 31.8215
lfoot -22.2747 -10.3587
ltoes -10.2832
14
root 10.6316 20.9814 10.6809 3.6621 2.96517 -1.79629
lowerback -8.15822 0.356709 0.0215665
upperback 1.60788 0.562964 -1.45051
thorax 6.27942 0.306571 -1.45305
lowerneck 1.44036 -4.06394 -3.44183
upperneck 8.65826 -6.31332 11.7978
head 2.79856 -2.91814 3.989
rclavicle 6.95746e-015 1.59028e-015
rhumerus -35.2949 0.36451 -90.3224
rradius 27.7252
rwrist 5.61104
rhand -1.79976 -46.2247
rfingers 7.12502
rthumb 23.8654 -74.762
lclavicle 6.95746e-015 1.59028e-015
lhumerus -27.0567 -11.2689 89.6075
lradius 20.2741
lwrist 0.58908
lhand -7.00287 -11.3542
lfingers 7.12502
lthumb 18.8681 17.7506
rfemur -3.50703 5.92069 20.2655
rtibia 13.2556
rfoot -26.7303 -14.8215
rtoes 6.17677
lfemur -15.432 -5.16674 -13.5147
ltibia 31.8273
lfoot -22.2745 -10.3996
ltoes -10.1655
